# xmcd
#
# Track frame offsets: 
#        150
#        26507
#        49524
#        73551
#        94253
#        120265
#        138580
#
# Disc length: 2430 seconds
#
# Revision: 0
# Processed by: cddbd v1.5.2PL0 Copyright (c) Steve Scherf et al.
# Submitted via: ExactAudioCopy v1.1
#
DISCID=56097c07
DTITLE=Muddy Waters - Muddy 'Mississippi' Waters Live - Disc 1
DYEAR=1978
DGENRE=Blues
TTITLE0=Mannish Boy (live)
TTITLE1=She's Nineteen Years Old (live)
TTITLE2=Nine Below Zero (live)
TTITLE3=Streamline Woman (live)
TTITLE4=Howling Wolf (live)
TTITLE5=Baby Please Don't Go (live)
TTITLE6=Deep Down In Florida (live)
EXTD=
EXTT0=
EXTT1=
EXTT2=
EXTT3=
EXTT4=
EXTT5=
EXTT6=
PLAYORDER=
